<?xml version="1.0" encoding="UTF-8" standalone="no"?>
<!DOCTYPE svg PUBLIC "-//W3C//DTD SVG 1.1//EN"
 "http://www.w3.org/Graphics/SVG/1.1/DTD/svg11.dtd">
<!-- Generated by graphviz version 2.46.1 (0)
 -->
<!-- Title: G Pages: 1 -->
<svg width="810pt" height="310pt"
 viewBox="0.00 0.00 810.00 310.00" xmlns="http://www.w3.org/2000/svg" xmlns:xlink="http://www.w3.org/1999/xlink">
<g id="graph0" class="graph" transform="scale(1 1) rotate(0) translate(4 306)">
<title>G</title>
<polygon fill="white" stroke="transparent" points="-4,4 -4,-306 806,-306 806,4 -4,4"/>
<g id="clust1" class="cluster">
<title>cluster_1</title>
<polygon fill="none" stroke="lightskyblue" points="127,-124 127,-268 372,-268 372,-124 127,-124"/>
<text text-anchor="middle" x="167" y="-252.8" font-family="Sans" font-size="14.00" fill="dimgray">HIR</text>
<text text-anchor="middle" x="167" y="-237.8" font-family="Sans" font-size="14.00" fill="dimgray">Lowering</text>
</g>
<!-- input -->
<g id="node1" class="node">
<title>input</title>
<polygon fill="none" stroke="black" points="93,-302 0,-302 0,-266 99,-266 99,-296 93,-302"/>
<polyline fill="none" stroke="black" points="93,-302 93,-296 "/>
<polyline fill="none" stroke="black" points="99,-296 93,-296 "/>
<text text-anchor="middle" x="49.5" y="-280.3" font-family="Sans" font-size="14.00">input.spade</text>
</g>
<!-- Parser -->
<g id="node2" class="node">
<title>Parser</title>
<path fill="none" stroke="black" d="M67.5,-248C67.5,-248 31.5,-248 31.5,-248 25.5,-248 19.5,-242 19.5,-236 19.5,-236 19.5,-224 19.5,-224 19.5,-218 25.5,-212 31.5,-212 31.5,-212 67.5,-212 67.5,-212 73.5,-212 79.5,-218 79.5,-224 79.5,-224 79.5,-236 79.5,-236 79.5,-242 73.5,-248 67.5,-248"/>
<text text-anchor="middle" x="49.5" y="-226.3" font-family="Sans" font-size="14.00">Parser</text>
</g>
<!-- input&#45;&gt;Parser -->
<g id="edge1" class="edge">
<title>input&#45;&gt;Parser</title>
<path fill="none" stroke="black" d="M49.5,-265.79C49.5,-263.31 49.5,-260.83 49.5,-258.34"/>
<polygon fill="black" stroke="black" points="53,-258.14 49.5,-248.14 46,-258.14 53,-258.14"/>
</g>
<!-- AST -->
<g id="node3" class="node">
<title>AST</title>
<polygon fill="lightcyan" stroke="black" points="70.5,-194 22.5,-194 22.5,-158 76.5,-158 76.5,-188 70.5,-194"/>
<polyline fill="none" stroke="black" points="70.5,-194 70.5,-188 "/>
<polyline fill="none" stroke="black" points="76.5,-188 70.5,-188 "/>
<text text-anchor="middle" x="49.5" y="-172.3" font-family="Sans" font-size="14.00">AST</text>
</g>
<!-- Parser&#45;&gt;AST -->
<g id="edge2" class="edge">
<title>Parser&#45;&gt;AST</title>
<path fill="none" stroke="black" d="M49.5,-211.79C49.5,-209.31 49.5,-206.83 49.5,-204.34"/>
<polygon fill="black" stroke="black" points="53,-204.14 49.5,-194.14 46,-204.14 53,-204.14"/>
</g>
<!-- GlobCol -->
<g id="node4" class="node">
<title>GlobCol</title>
<path fill="none" stroke="black" d="M205,-220C205,-220 147,-220 147,-220 141,-220 135,-214 135,-208 135,-208 135,-194 135,-194 135,-188 141,-182 147,-182 147,-182 205,-182 205,-182 211,-182 217,-188 217,-194 217,-194 217,-208 217,-208 217,-214 211,-220 205,-220"/>
<text text-anchor="middle" x="176" y="-204.8" font-family="Sans" font-size="14.00">Global</text>
<text text-anchor="middle" x="176" y="-189.8" font-family="Sans" font-size="14.00">collection</text>
</g>
<!-- AST&#45;&gt;GlobCol -->
<g id="edge3" class="edge">
<title>AST&#45;&gt;GlobCol</title>
<path fill="none" stroke="black" d="M76.6,-181.24C90.53,-184.04 108.17,-187.58 124.65,-190.89"/>
<polygon fill="black" stroke="black" points="124.22,-194.37 134.72,-192.91 125.6,-187.51 124.22,-194.37"/>
</g>
<!-- ASTLower -->
<g id="node5" class="node">
<title>ASTLower</title>
<path fill="none" stroke="black" d="M352,-168C352,-168 265,-168 265,-168 259,-168 253,-162 253,-156 253,-156 253,-144 253,-144 253,-138 259,-132 265,-132 265,-132 352,-132 352,-132 358,-132 364,-138 364,-144 364,-144 364,-156 364,-156 364,-162 358,-168 352,-168"/>
<text text-anchor="middle" x="308.5" y="-146.3" font-family="Sans" font-size="14.00">AST Lowering</text>
</g>
<!-- AST&#45;&gt;ASTLower -->
<g id="edge4" class="edge">
<title>AST&#45;&gt;ASTLower</title>
<path fill="none" stroke="black" d="M76.56,-173.36C115.22,-169.45 188.99,-161.99 242.79,-156.55"/>
<polygon fill="black" stroke="black" points="243.33,-160.01 252.92,-155.52 242.62,-153.05 243.33,-160.01"/>
</g>
<!-- Globals -->
<g id="node6" class="node">
<title>Globals</title>
<polygon fill="lightcyan" stroke="black" points="354,-222 257,-222 257,-186 360,-186 360,-216 354,-222"/>
<polyline fill="none" stroke="black" points="354,-222 354,-216 "/>
<polyline fill="none" stroke="black" points="360,-216 354,-216 "/>
<text text-anchor="middle" x="308.5" y="-200.3" font-family="Sans" font-size="14.00">Global items</text>
</g>
<!-- GlobCol&#45;&gt;Globals -->
<g id="edge5" class="edge">
<title>GlobCol&#45;&gt;Globals</title>
<path fill="none" stroke="black" d="M217.22,-201.92C226.45,-202.14 236.46,-202.37 246.35,-202.59"/>
<polygon fill="black" stroke="black" points="246.49,-206.1 256.57,-202.83 246.65,-199.1 246.49,-206.1"/>
</g>
<!-- HIR -->
<g id="node7" class="node">
<title>HIR</title>
<polygon fill="lightcyan" stroke="black" points="448,-168 400,-168 400,-132 454,-132 454,-162 448,-168"/>
<polyline fill="none" stroke="black" points="448,-168 448,-162 "/>
<polyline fill="none" stroke="black" points="454,-162 448,-162 "/>
<text text-anchor="middle" x="427" y="-146.3" font-family="Sans" font-size="14.00">HIR</text>
</g>
<!-- ASTLower&#45;&gt;HIR -->
<g id="edge7" class="edge">
<title>ASTLower&#45;&gt;HIR</title>
<path fill="none" stroke="black" d="M364.34,-150C372.96,-150 381.67,-150 389.73,-150"/>
<polygon fill="black" stroke="black" points="389.88,-153.5 399.88,-150 389.88,-146.5 389.88,-153.5"/>
</g>
<!-- Globals&#45;&gt;ASTLower -->
<g id="edge6" class="edge">
<title>Globals&#45;&gt;ASTLower</title>
<path fill="none" stroke="black" d="M308.5,-185.79C308.5,-183.31 308.5,-180.83 308.5,-178.34"/>
<polygon fill="black" stroke="black" points="312,-178.14 308.5,-168.14 305,-178.14 312,-178.14"/>
</g>
<!-- TypeInference -->
<g id="node8" class="node">
<title>TypeInference</title>
<path fill="none" stroke="black" d="M559.5,-223C559.5,-223 502.5,-223 502.5,-223 496.5,-223 490.5,-217 490.5,-211 490.5,-211 490.5,-197 490.5,-197 490.5,-191 496.5,-185 502.5,-185 502.5,-185 559.5,-185 559.5,-185 565.5,-185 571.5,-191 571.5,-197 571.5,-197 571.5,-211 571.5,-211 571.5,-217 565.5,-223 559.5,-223"/>
<text text-anchor="middle" x="531" y="-207.8" font-family="Sans" font-size="14.00">Type</text>
<text text-anchor="middle" x="531" y="-192.8" font-family="Sans" font-size="14.00">inference</text>
</g>
<!-- Globals&#45;&gt;TypeInference -->
<g id="edge9" class="edge">
<title>Globals&#45;&gt;TypeInference</title>
<path fill="none" stroke="black" d="M360.09,-204C396.08,-204 444.21,-204 480.05,-204"/>
<polygon fill="black" stroke="black" points="480.28,-207.5 490.28,-204 480.28,-200.5 480.28,-207.5"/>
</g>
<!-- HIR&#45;&gt;TypeInference -->
<g id="edge8" class="edge">
<title>HIR&#45;&gt;TypeInference</title>
<path fill="none" stroke="black" d="M454,-163.77C463.41,-168.74 474.32,-174.52 484.89,-180.12"/>
<polygon fill="black" stroke="black" points="483.56,-183.38 494.04,-184.96 486.84,-177.19 483.56,-183.38"/>
</g>
<!-- HIRLower -->
<g id="node10" class="node">
<title>HIRLower</title>
<path fill="none" stroke="black" d="M676,-145C676,-145 620,-145 620,-145 614,-145 608,-139 608,-133 608,-133 608,-119 608,-119 608,-113 614,-107 620,-107 620,-107 676,-107 676,-107 682,-107 688,-113 688,-119 688,-119 688,-133 688,-133 688,-139 682,-145 676,-145"/>
<text text-anchor="middle" x="648" y="-129.8" font-family="Sans" font-size="14.00">HIR</text>
<text text-anchor="middle" x="648" y="-114.8" font-family="Sans" font-size="14.00">Lowering</text>
</g>
<!-- HIR&#45;&gt;HIRLower -->
<g id="edge11" class="edge">
<title>HIR&#45;&gt;HIRLower</title>
<path fill="none" stroke="black" d="M454.01,-135.29C464.79,-129.99 477.65,-124.66 490,-122 525.44,-114.37 566.42,-115.74 597.63,-118.83"/>
<polygon fill="black" stroke="black" points="597.49,-122.33 607.81,-119.93 598.25,-115.37 597.49,-122.33"/>
</g>
<!-- TypeSpec -->
<g id="node9" class="node">
<title>TypeSpec</title>
<polygon fill="lightcyan" stroke="black" points="566,-167 490,-167 490,-131 572,-131 572,-161 566,-167"/>
<polyline fill="none" stroke="black" points="566,-167 566,-161 "/>
<polyline fill="none" stroke="black" points="572,-161 566,-161 "/>
<text text-anchor="middle" x="531" y="-145.3" font-family="Sans" font-size="14.00">TypeSpec</text>
</g>
<!-- TypeInference&#45;&gt;TypeSpec -->
<g id="edge10" class="edge">
<title>TypeInference&#45;&gt;TypeSpec</title>
<path fill="none" stroke="black" d="M531,-184.95C531,-182.34 531,-179.73 531,-177.12"/>
<polygon fill="black" stroke="black" points="534.5,-177.05 531,-167.05 527.5,-177.05 534.5,-177.05"/>
</g>
<!-- TypeSpec&#45;&gt;HIRLower -->
<g id="edge12" class="edge">
<title>TypeSpec&#45;&gt;HIRLower</title>
<path fill="none" stroke="black" d="M572.22,-140.96C580.51,-139.3 589.32,-137.54 597.88,-135.82"/>
<polygon fill="black" stroke="black" points="598.65,-139.24 607.77,-133.85 597.28,-132.38 598.65,-139.24"/>
</g>
<!-- MIR -->
<g id="node11" class="node">
<title>MIR</title>
<polygon fill="lightcyan" stroke="black" points="784,-144 736,-144 736,-108 790,-108 790,-138 784,-144"/>
<polyline fill="none" stroke="black" points="784,-144 784,-138 "/>
<polyline fill="none" stroke="black" points="790,-138 784,-138 "/>
<text text-anchor="middle" x="763" y="-122.3" font-family="Sans" font-size="14.00">MIR</text>
</g>
<!-- HIRLower&#45;&gt;MIR -->
<g id="edge13" class="edge">
<title>HIRLower&#45;&gt;MIR</title>
<path fill="none" stroke="black" d="M688.2,-126C700.43,-126 713.85,-126 725.86,-126"/>
<polygon fill="black" stroke="black" points="725.98,-129.5 735.98,-126 725.98,-122.5 725.98,-129.5"/>
</g>
<!-- Codegen -->
<g id="node12" class="node">
<title>Codegen</title>
<path fill="none" stroke="black" d="M790,-90C790,-90 736,-90 736,-90 730,-90 724,-84 724,-78 724,-78 724,-66 724,-66 724,-60 730,-54 736,-54 736,-54 790,-54 790,-54 796,-54 802,-60 802,-66 802,-66 802,-78 802,-78 802,-84 796,-90 790,-90"/>
<text text-anchor="middle" x="763" y="-68.3" font-family="Sans" font-size="14.00">Codegen</text>
</g>
<!-- MIR&#45;&gt;Codegen -->
<g id="edge14" class="edge">
<title>MIR&#45;&gt;Codegen</title>
<path fill="none" stroke="black" d="M763,-107.79C763,-105.31 763,-102.83 763,-100.34"/>
<polygon fill="black" stroke="black" points="766.5,-100.14 763,-90.14 759.5,-100.14 766.5,-100.14"/>
</g>
<!-- verilog -->
<g id="node13" class="node">
<title>verilog</title>
<polygon fill="lightcyan" stroke="black" points="789,-36 731,-36 731,0 795,0 795,-30 789,-36"/>
<polyline fill="none" stroke="black" points="789,-36 789,-30 "/>
<polyline fill="none" stroke="black" points="795,-30 789,-30 "/>
<text text-anchor="middle" x="763" y="-14.3" font-family="Sans" font-size="14.00">verilog</text>
</g>
<!-- Codegen&#45;&gt;verilog -->
<g id="edge15" class="edge">
<title>Codegen&#45;&gt;verilog</title>
<path fill="none" stroke="black" d="M763,-53.79C763,-51.31 763,-48.83 763,-46.34"/>
<polygon fill="black" stroke="black" points="766.5,-46.14 763,-36.14 759.5,-46.14 766.5,-46.14"/>
</g>
</g>
</svg>
